<svg xmlns="http://www.w3.org/2000/svg" viewBox="0 0 512 512" fill="none">
  <rect width="512" height="512" rx="112" fill="#f6d8a8" />
  <rect x="20" y="20" width="472" height="472" rx="96" stroke="#7a330e" stroke-opacity="0.28" stroke-width="6" />

  <g stroke="#7a330e" stroke-width="11" stroke-linecap="round" stroke-linejoin="round">
    <circle cx="92" cy="182" r="17" />
    <path d="M66 208l24-17 24 17" />
    <path d="M70 156l22 18" />
  </g>

  <g stroke="#7a330e" stroke-width="11" stroke-linecap="round" stroke-linejoin="round">
    <rect x="398" y="165" width="42" height="54" rx="10" />
    <path d="M432 154c6-15 20-19 26-9 4 7 0 15-6 21" />
    <path d="M408 192h22" />
    <path d="M408 206h22" />
  </g>

  <g stroke="#7a330e" stroke-width="12" stroke-linecap="round" stroke-linejoin="round">
    <path d="M145 266c0-34 31-63 72-63h53" />
    <path d="M133 276c15-6 39 6 39 28 0 20-18 31-34 28" />
    <path d="M174 304l28 28" />
    <path d="M206 332c18 0 34-14 34-32v-18" />

    <path d="M250 198c0-31 25-56 56-56 30 0 56 25 56 56 0 30-26 56-56 56h-36" />
    <path d="M328 136c0-14-12-24-26-24" />
    <path d="M301 111c0-8 6-14 14-14" />

    <path d="M284 212v74" />
    <path d="M320 212v72" />
    <path d="M284 286c0 17 14 31 31 31h23" />
    <path d="M315 317l9 19" />
    <path d="M339 317l8 18" />

    <path d="M331 184c6-10 20-12 29-4" />
    <path d="M337 190c6 5 14 5 19 0" />
    <path d="M302 220c16 10 35 10 50 0" />
    <path d="M301 247c10 9 41 9 51 0" />
  </g>

  <text
    x="256"
    y="430"
    text-anchor="middle"
    fill="#7a330e"
    font-size="62"
    font-family="PingFang SC, Hiragino Sans GB, Microsoft YaHei, sans-serif"
    font-weight="700"
    letter-spacing="4"
  >
    喂养日记
  </text>
</svg>
